<svg xmlns="http://www.w3.org/2000/svg" width="20" height="20" viewBox="0 0 24 24"><path fill="black" d="M16.365 1.43c0 1.14-.93 2.07-2.07 2.07-1.14 0-2.07-.93-2.07-2.07 0-1.14.93-2.07 2.07-2.07 1.14 0 2.07.93 2.07 2.07zm4.13 4.13c-.09-.09-.19-.18-.29-.26-.09-.08-.19-.15-.29-.22-.09-.07-.19-.13-.29-.19-.09-.06-.19-.11-.29-.16-.09-.05-.19-.09-.29-.13-.09-.04-.19-.07-.29-.1-.09-.03-.19-.05-.29-.07-.09-.02-.19-.03-.29-.04-.09-.01-.19-.01-.29-.01-.09 0-.19 0-.29.01-.09.01-.19.02-.29.04-.09.02-.19.04-.29.07-.09.03-.19.06-.29.1-.09.04-.19.08-.29.13-.09.05-.19.1-.29.16-.09.06-.19.12-.29.19-.09.07-.19.14-.29.22-.09.08-.19.17-.29.26-.09.09-.18.19-.26.29-.08.09-.15.19-.22.29-.07.09-.13.19-.19.29-.06.09-.11.19-.16.29-.05.09-.09.19-.13.29-.04.09-.07.19-.1.29-.03.09-.05.19-.07.29-.02.09-.03.19-.04.29-.01.09-.01.19-.01.29 0 .09 0 .19.01.29.01.09.02.19.04.29.02.09.04.19.07.29.03.09.06.19.1.29.04.09.08.19.13.29.05.09.1.19.16.29.06.09.12.19.19.29.07.09.14.19.22.29.08.09.17.19.26.29.09.09.19.18.29.26.09.08.19.15.29.22.09.07.19.13.29.19.09.06.19.11.29.16.09.05.19.09.29.13.09.04.19.07.29.1.09.03.19.05.29.07.09.02.19.03.29.04.09.01.19.01.29.01.09 0 .19 0 .29-.01.09-.01.19-.02.29-.04.09-.02.19-.04.29-.07.09-.03.19-.06.29-.1.09-.04.19-.08.29-.13.09-.05.19-.1.29-.16.09-.06.19-.12.29-.19.09-.07.19-.14.29-.22.09-.08.19-.17.29-.26.09-.09.18-.19.26-.29.08-.09.15-.19.22-.29.07-.09.13-.19.19-.29.06-.09.11-.19.16-.29.05-.09.09-.19.13-.29.04-.09.07-.19.1-.29.03-.09.05-.19.07-.29.02-.09.03-.19.04-.29.01-.09.01-.19.01-.29 0-.09 0-.19-.01-.29-.01-.09-.02-.19-.04-.29-.02-.09-.04-.19-.07-.29-.03-.09-.06-.19-.1-.29-.04-.09-.08-.19-.13-.29-.05-.09-.1-.19-.16-.29-.06-.09-.12-.19-.19-.29-.07-.09-.14-.19-.22-.29-.08-.09-.17-.19-.26-.29z"/></svg>