<svg xmlns="http://www.w3.org/2000/svg" width="20" height="20" viewBox="0 0 48 48"><g><path fill="#4285F4" d="M43.611 20.083H42V20H24v8h11.303C33.962 32.833 29.418 36 24 36c-6.627 0-12-5.373-12-12s5.373-12 12-12c2.803 0 5.377.99 7.413 2.626l6.293-6.293C34.583 6.162 29.555 4 24 4 12.954 4 4 12.954 4 24s8.954 20 20 20c11.045 0 19.799-8.955 19.799-20 0-1.341-.138-2.651-.388-3.917z"/><path fill="#34A853" d="M6.306 14.691l6.571 4.819C14.655 16.163 19.001 13 24 13c2.803 0 5.377.99 7.413 2.626l6.293-6.293C34.583 6.162 29.555 4 24 4c-7.732 0-14.41 4.388-17.694 10.691z"/><path fill="#FBBC05" d="M24 44c5.356 0 10.24-1.843 14.045-4.995l-6.484-5.307C29.418 36 24 36 24 36c-5.418 0-9.962-3.167-11.303-8.083l-6.571 5.081C9.59 39.612 16.268 44 24 44z"/><path fill="#EA4335" d="M43.611 20.083H42V20H24v8h11.303c-1.13 4.417-5.674 7.584-11.303 7.584-3.13 0-5.963-1.04-8.19-2.81l-6.571 5.081C9.59 39.612 16.268 44 24 44c11.045 0 19.799-8.955 19.799-20 0-1.341-.138-2.651-.388-3.917z"/></g></svg>